<svg enable-background="new 0 0 128 128" height="128" viewBox="0 0 128 128" width="128" xmlns="http://www.w3.org/2000/svg"><path clip-rule="evenodd" d="m82.634 24.251c3.715-.124 7.432-.028 11.158-.036h1.534v-19.333c-1.985-.2-4.065-.488-6.144-.588-3.811-.169-7.63-.36-11.447-.271-5.826.122-11.342 1.541-16.158 4.994-5.523 3.975-8.559 9.553-9.711 16.144-.479 2.72-.603 5.534-.672 8.3-.108 4.341-.023 8.677-.015 13.021v1.625h-18.505v21.599h18.395v54.294h22.482v-54.207h18.333c.942-7.182 1.858-14.295 2.824-21.7-1.476 0-2.801-.005-4.124 0-5.212.019-17.182 0-17.182 0s.05-10.706.18-15.354c.18-6.362 3.955-8.303 9.052-8.488" fill="#1e4fad" fill-rule="evenodd"/></svg>