<svg enable-background="new 0 0 128 128" height="128" viewBox="0 0 128 128" width="128" xmlns="http://www.w3.org/2000/svg" xmlns:xlink="http://www.w3.org/1999/xlink"><linearGradient id="a"><stop offset="0" stop-color="#3542e0"/><stop offset=".0108" stop-color="#3542e0"/><stop offset=".1742" stop-color="#3841df"/><stop offset=".2739" stop-color="#403fda"/><stop offset=".3566" stop-color="#4e3cd2"/><stop offset=".4299" stop-color="#6337c7"/><stop offset=".497" stop-color="#7d31b9"/><stop offset=".5596" stop-color="#9e2aa8"/><stop offset=".6176" stop-color="#c42193"/><stop offset=".6236" stop-color="#c82091"/><stop offset=".7612" stop-color="#f62b37"/><stop offset="1" stop-color="#ffc658"/></linearGradient><linearGradient id="b" gradientTransform="matrix(-50.5315 64.3642 64.3642 50.5315 -4258.4531 -7016.75)" gradientUnits="userSpaceOnUse" x1="34.5977" x2="36.5524" xlink:href="#a" y1="94.9805" y2="94.9805"/><linearGradient id="c" gradientTransform="matrix(-50.5315 64.3642 64.3642 50.5315 -4258.4531 -7016.75)" gradientUnits="userSpaceOnUse" x1="34.5977" x2="36.5524" xlink:href="#a" y1="95.0469" y2="95.0469"/><path d="m64.01 33.243c-16.993-.01-30.775 13.759-30.785 30.751-.009 16.991 13.756 30.775 30.75 30.783 16.995.012 30.775-13.757 30.786-30.751.01-16.991-13.758-30.775-30.751-30.783zm-.026 50.645c-.062 0-.123 0-.186-.004-10.988-.096-19.815-9.084-19.717-20.073.098-10.987 9.087-19.816 20.071-19.716 10.992.097 19.82 9.086 19.722 20.074-.1 10.925-8.986 19.715-19.89 19.719z" fill="url(#b)"/><path d="m122.198 98.642c2.743-10.478 1.785-55.068.825-64.522-.806-7.895-3.832-14.882-9.702-20.479-6.173-5.893-13.724-8.494-22.002-8.936-6.815-.371-18.157-.677-29.388-.677-12.008 0-23.885.351-29.963 1.341-13.432 2.188-22.243 10.031-25.959 23.301-1.412 5.05-1.99 19.108-2.009 33.25v1.484c.019 13.962.571 27.697 1.386 32.626 2.275 13.799 10.432 22.649 24.107 26.17 4.713 1.218 18.615 1.753 32.675 1.771h1.626c13.63-.019 27.083-.515 32.121-1.332 13.811-2.233 22.694-10.343 26.283-23.997zm-58.94 14.471c-13.658 0-27.591-.47-32.26-1.776-8.588-2.401-13.498-8.305-14.927-16.949-1.362-8.259-1.7-49.513-.017-60.554 1.583-10.391 8.538-16.875 19.012-18.044 10.633-1.195 48.885-1.324 59.065.237 10.46 1.606 16.942 8.576 18.093 19.131 1.071 9.845 1.379 48.337-.246 58.922-1.605 10.48-8.562 16.968-19.099 18.125-4.645.507-17.016.908-29.621.908z" fill="url(#b)"/><path d="m95.995 24.856c-.006 0-.012 0-.017 0-3.972 0-7.194 3.214-7.205 7.188-.008 3.979 3.207 7.212 7.186 7.22 3.98.011 7.213-3.207 7.223-7.184.01-3.98-3.208-7.212-7.187-7.224z" fill="url(#c)"/></svg>