<?xml version="1.0" encoding="utf-8"?>
<!-- Generator: Adobe Illustrator 23.0.4, SVG Export Plug-In . SVG Version: 6.00 Build 0)  -->
<svg version="1.1" id="レイヤー_1" xmlns="http://www.w3.org/2000/svg" xmlns:xlink="http://www.w3.org/1999/xlink" x="0px"
	 y="0px" viewBox="0 0 128 128" style="enable-background:new 0 0 128 128;" xml:space="preserve">
<g>
	<g>
		<path d="M122,56.1c0-26.2-26.2-47.2-58-47.2S6,29.9,6,56.1c0,23.3,21,42.8,48.7,46.3c2,0.6,4.4,1.5,5,2.9c0.6,1.5,0.6,3.5,0,5
			c0,0-0.6,4.4-0.6,5c0,1.5-1.5,5.8,5,2.9c6.4-2.9,33.2-19.5,45.8-34.1l0,0C118.5,75.6,122,66,122,56.1z M41.6,71.3H29.9
			c-1.5,0-2.9-1.5-2.9-2.9V45c-0.6-1.5,0.6-2.9,2.9-2.9c1.5,0,2.9,1.5,2.9,2.9v20.4h8.7c1.5,0,2.9,1.5,2.9,2.9
			C44.5,69.8,43,71.3,41.6,71.3z M53.2,68.3c0,1.5-1.5,2.9-2.9,2.9s-2.9-1.5-2.9-2.9V45c0-1.5,1.5-2.9,2.9-2.9s2.9,1.5,2.9,2.9V68.3
			z M81.5,68.3c0,1.5-0.6,2-2,2.9h-0.6c-0.6,0-2-0.6-2-1.5l-12.2-16v14.6c0,1.5-1.5,2.9-2.9,2.9s-2.9-1.5-2.9-2.9V45
			c-0.6-1.5,0-2.9,1.5-2.9h0.6c1.5,0,2,0,2.9,0.6l11.7,16V44.1c0-1.5,1.5-2.9,2.9-2.9c1.5,0,2.9,1.5,2.9,2.9V68h0.3V68.3z
			 M99.6,53.8c1.5,0,2.9,1.5,2.9,2.9s-1.5,2.9-2.9,2.9h-8.7v5.8h8.7c1.5,0,2.9,1.5,2.9,2.9c0,1.5-1.5,2.9-2.9,2.9H87.9
			c-1.5,0-2.9-1.5-2.9-2.9V56.7l0,0l0,0V45l0,0c0-1.5,1.5-2.9,2.9-2.9h11.7c1.5,0,2.9,1.5,2.9,2.9s-1.5,2.9-2.9,2.9h-8.7v5.8H99.6z"
			/>
	</g>
</g>
</svg>
