<?xml version="1.0" encoding="utf-8"?>
<!-- Generator: Adobe Illustrator 23.0.4, SVG Export Plug-In . SVG Version: 6.00 Build 0)  -->
<svg version="1.1" id="レイヤー_1" xmlns="http://www.w3.org/2000/svg" xmlns:xlink="http://www.w3.org/1999/xlink" x="0px"
	 y="0px" viewBox="0 0 128 128" style="enable-background:new 0 0 128 128;" xml:space="preserve">
<g>
	<path d="M76.1,67.6c-3.9-4.6-9.1-6.5-16.3-7.2c6.5-2,10.4-3.9,13.7-7.2c2.6-3.3,3.9-7.8,3.9-13c0-3.9-0.7-7.8-2.6-11.7
		c-2-3.3-4.6-5.9-8.5-7.8c-3.3-2-7.2-3.3-11.1-3.9c-4.6-0.7-12.4-1.3-22.8-1.3H6v97.4h27c11.1,0,18.9-0.7,24.1-1.3s9.1-2,12.4-3.9
		c3.9-2,7.2-5.2,9.1-9.1s3.3-8.5,3.3-13.7C81.9,77.4,80,71.5,76.1,67.6z M30.1,37.3H36c6.5,0,11.1,0.7,13,2c2,1.3,3.3,3.9,3.3,7.8
		c0,3.9-1.3,5.9-3.9,7.2c-2.6,1.3-7.2,2-13.7,2h-5.2V37.3H30.1z M52.6,92.7c-2.6,1.3-7.2,2.6-13.7,2.6h-9.1V73.8h9.8
		c6.5,0,11.1,0.7,13,2.6c2.6,2,3.9,4.6,3.9,8.5C56.5,88.8,55.2,90.7,52.6,92.7L52.6,92.7z"/>
	<path d="M109.6,87.8c-6.5,0-12.4,5.9-12.4,12.4s5.9,12.4,12.4,12.4s12.4-5.9,12.4-12.4l0,0C122,93.3,116.8,87.8,109.6,87.8z"/>
	<rect x="99.2" y="15.1" width="21.5" height="64.8"/>
</g>
</svg>
