<?xml version="1.0" encoding="utf-8"?>
<!-- Generator: Adobe Illustrator 23.0.4, SVG Export Plug-In . SVG Version: 6.00 Build 0)  -->
<svg version="1.1" id="レイヤー_1" xmlns="http://www.w3.org/2000/svg" xmlns:xlink="http://www.w3.org/1999/xlink" x="0px"
	 y="0px" viewBox="0 0 128 128" style="enable-background:new 0 0 128 128;" xml:space="preserve">
<style type="text/css">
	.st0{fill:#EF4056;}
</style>
<path class="st0" d="M18.6,14.5c-6,0.4-9.6,3.8-9.6,9.9v36.4c0,29.6,29.4,52.9,54.9,52.7c28.6-0.2,55.1-24.4,55.1-52.7V24.4
	c0-6.1-3.9-9.6-9.9-9.9L18.6,14.5L18.6,14.5z M41.8,44.1l22.1,21l22.1-21c9.9-4.2,14.2,7.1,10.2,10.4L67.4,82.1
	c-0.9,0.9-6,0.9-6.9,0L31.7,54.6C27.8,50.9,32.8,39.5,41.8,44.1L41.8,44.1z"/>
</svg>
