<svg enable-background="new 0 0 128 128" height="128" viewBox="0 0 128 128" width="128" xmlns="http://www.w3.org/2000/svg"><path clip-rule="evenodd" d="m40.391 91.594c-12.813-.451-20.823-9.644-22.941-17.114 3.564.679 7.076.543 10.568-.317.091-.02.181-.083.354-.161-6.938-1.615-12.298-5.329-16.014-11.312-2.468-3.98-3.649-8.334-3.613-13.117 3.465 1.854 7.086 2.888 10.973 2.989-5.219-3.758-8.717-8.671-10.148-14.954-1.42-6.274-.501-12.236 2.645-17.861 13.352 15.724 30.25 24.345 50.856 25.765-.144-.975-.298-1.836-.396-2.698-.688-5.8.47-11.215 3.605-16.122 3.919-6.154 9.523-9.975 16.72-11.146 8.291-1.362 15.531 1.003 21.586 6.872.408.391.743.521 1.313.391 5.066-1.1 9.847-2.925 14.341-5.515.106-.06.217-.121.326-.169.023-.016.062-.012.165-.012-1.95 5.737-5.506 10.153-10.559 13.417 4.774-.521 9.334-1.792 13.732-3.694.035.041.066.079.099.111-.943 1.236-1.856 2.496-2.834 3.695-2.615 3.228-5.621 6.063-8.964 8.519-.282.21-.416.412-.406.775.134 3.657-.008 7.314-.462 10.95-.948 7.662-3.084 14.971-6.354 21.954-3.379 7.202-7.782 13.721-13.328 19.436-9.392 9.709-20.71 15.975-33.883 18.882-4.521.992-9.107 1.503-13.736 1.635-14.218.416-27.36-3.12-39.457-10.591-.154-.089-.307-.201-.58-.376 8.607.927 16.79-.176 24.666-3.4 4.183-1.712 8.057-3.958 11.726-6.832" fill="#1ba5d4" fill-rule="evenodd"/></svg>