<?xml version="1.0" encoding="utf-8"?>
<!-- Generator: Adobe Illustrator 23.0.3, SVG Export Plug-In . SVG Version: 6.00 Build 0)  -->
<svg version="1.1" id="レイヤー_1" xmlns="http://www.w3.org/2000/svg" xmlns:xlink="http://www.w3.org/1999/xlink" x="0px"
	 y="0px" viewBox="0 0 128 128" style="enable-background:new 0 0 128 128;" xml:space="preserve">
<style type="text/css">
	.st0{fill:#3E3A39;}
</style>
<path class="st0" d="M64,19.9c-28.1,0-50.8,18.5-50.8,41.3c0,11.3,5.6,21.5,14.6,29l-7.7,14.2c-1.7,3.1-0.4,4.6,2.9,3.2L43.5,99
	c6.3,2.3,13.2,3.5,20.5,3.5c28.1,0,50.8-18.5,50.8-41.3C114.8,38.4,92.1,19.9,64,19.9z M41.9,66.6c-3,0-5.4-2.4-5.4-5.4
	c0-3,2.4-5.4,5.4-5.4c3,0,5.4,2.4,5.4,5.4C47.2,64.2,44.8,66.6,41.9,66.6z M64,66.6c-3,0-5.4-2.4-5.4-5.4c0-3,2.4-5.4,5.4-5.4
	c3,0,5.4,2.4,5.4,5.4C69.4,64.2,67,66.6,64,66.6z M86.1,66.6c-3,0-5.4-2.4-5.4-5.4c0-3,2.4-5.4,5.4-5.4c3,0,5.4,2.4,5.4,5.4
	C91.5,64.2,89.1,66.6,86.1,66.6z"/>
</svg>
