<?xml version="1.0" encoding="utf-8"?>
<!-- Generator: Adobe Illustrator 23.0.3, SVG Export Plug-In . SVG Version: 6.00 Build 0)  -->
<svg version="1.1" id="レイヤー_1" xmlns="http://www.w3.org/2000/svg" xmlns:xlink="http://www.w3.org/1999/xlink" x="0px"
	 y="0px" viewBox="0 0 128 128" style="enable-background:new 0 0 128 128;" xml:space="preserve">
<g>
	<path d="M106.3,19.5L106.3,19.5c-4.9-5.1-11.5-7.8-18.4-7.8s-13.5,2.7-18.4,7.8L17.4,72.4c-1.6,1.6-1.6,4.1,0,5.7
		c1.6,1.6,4.1,1.6,5.7,0l52.1-52.8c3.4-3.5,7.9-5.4,12.6-5.4c4.7,0,9.3,1.9,12.6,5.4l0,0c7.1,7.2,7.1,18.7,0,25.9l-54.7,55.6
		c-2.3,2.3-5.4,3.6-8.6,3.6c-3.3,0-6.3-1.3-8.6-3.7l0,0c-4.8-4.8-4.8-12.8,0-17.7l44.7-45.5c1.3-1.3,2.8-1.9,4.6-1.9
		c1.8,0,3.4,0.7,4.6,1.9l0,0c2.5,2.6,2.5,6.8,0,9.5L40.3,95.7c-1.6,1.6-1.6,4.1,0,5.7c1.6,1.6,4.1,1.6,5.7,0l42.1-42.8
		c5.7-5.8,5.7-15.1,0-20.8l0,0c-2.5-2.7-6.2-4.3-10.1-4.3c-3.9,0-7.6,1.6-10.3,4.3L22.8,83.3c-3.8,3.9-5.9,9.1-5.9,14.5
		c0,5.5,2.1,10.6,5.9,14.5l0,0c3.8,3.9,8.9,6,14.4,6l0,0c5.5,0,10.5-2.1,14.4-6l54.7-55.6c4.9-4.9,7.6-11.6,7.6-18.6
		C113.9,31.1,111.3,24.5,106.3,19.5z"/>
	<path d="M46.9,47.8l-12.5-6.4L22,48.2l2.2-13.9L14,24.6l13.9-2.2L34,9.6l6.3,12.5l14,1.9l-10,9.9L46.9,47.8z"/>
</g>
</svg>
