<?xml version="1.0" encoding="utf-8"?>
<!-- Generator: Adobe Illustrator 23.0.3, SVG Export Plug-In . SVG Version: 6.00 Build 0)  -->
<svg version="1.1" id="レイヤー_1" xmlns="http://www.w3.org/2000/svg" xmlns:xlink="http://www.w3.org/1999/xlink" x="0px"
	 y="0px" viewBox="0 0 128 128" style="enable-background:new 0 0 128 128;" xml:space="preserve">
<style type="text/css">
	.st0{fill:#3E3A39;}
</style>
<path class="st0" d="M110.4,66.4c0,0.9-0.7,1.7-1.6,1.8c-35.3,5.3-39.1,9-44.3,44.3c-0.1,0.9-0.9,1.6-1.8,1.6
	c-0.9,0-1.7-0.7-1.8-1.6c-5.3-35.3-9-39.1-44.3-44.3c-0.9-0.1-1.6-0.9-1.6-1.8c0-0.9,0.7-1.7,1.6-1.8c35.3-5.3,39.1-9,44.3-44.3
	c0.1-0.9,0.9-1.6,1.8-1.6c0.9,0,1.7,0.7,1.8,1.6c5.3,35.3,9,39.1,44.3,44.3C109.7,64.7,110.4,65.5,110.4,66.4z M116.4,28.3
	c-12.6-1.9-14-3.2-15.8-15.8c0-0.3-0.3-0.6-0.6-0.6c-0.3,0-0.6,0.2-0.6,0.6c-1.9,12.6-3.2,14-15.8,15.8c-0.3,0-0.6,0.3-0.6,0.6
	c0,0.3,0.2,0.6,0.6,0.6c12.6,1.9,14,3.2,15.8,15.8c0,0.3,0.3,0.6,0.6,0.6c0.3,0,0.6-0.2,0.6-0.6c1.9-12.6,3.2-14,15.8-15.8
	c0.3,0,0.6-0.3,0.6-0.6C117,28.6,116.8,28.3,116.4,28.3z"/>
</svg>
