<?xml version="1.0" encoding="utf-8"?>
<!-- Generator: Adobe Illustrator 23.0.3, SVG Export Plug-In . SVG Version: 6.00 Build 0)  -->
<svg version="1.1" id="レイヤー_1" xmlns="http://www.w3.org/2000/svg" xmlns:xlink="http://www.w3.org/1999/xlink" x="0px"
	 y="0px" viewBox="0 0 128 128" style="enable-background:new 0 0 128 128;" xml:space="preserve">
<path d="M102.7,79c14.8-14.8,14.8-38.9,0-53.8c-7.1-7.1-16.8-11.1-26.9-11.1c-10.1,0-19.7,4-26.9,11.1
	c-12.4,12.4-14.7,31.6-5.6,46.6L16.8,98.4c-3.5,3.5-3.6,9.2,0,12.8c3.5,3.5,9.2,3.5,12.8,0l26.6-26.6C71.1,93.7,90.3,91.4,102.7,79
	L102.7,79z M92.5,68.8c-4.4,4.4-10.4,6.9-16.6,6.9c-6.2,0-12.2-2.5-16.6-6.9c-4.4-4.4-6.9-10.4-6.9-16.6c0-6.2,2.5-12.2,6.9-16.6
	c4.4-4.4,10.4-6.9,16.6-6.9c6.2,0,12.2,2.5,16.6,6.9c4.4,4.4,6.9,10.4,6.9,16.6C99.4,58.4,96.9,64.4,92.5,68.8L92.5,68.8z
	 M92.5,68.8"/>
</svg>
