<?xml version="1.0" encoding="utf-8"?>
<!-- Generator: Adobe Illustrator 23.0.3, SVG Export Plug-In . SVG Version: 6.00 Build 0)  -->
<svg version="1.1" id="レイヤー_1" xmlns="http://www.w3.org/2000/svg" xmlns:xlink="http://www.w3.org/1999/xlink" x="0px"
	 y="0px" viewBox="0 0 128 128" style="enable-background:new 0 0 128 128;" xml:space="preserve">
<style type="text/css">
	.st0{fill:#231815;}
</style>
<g>
	<path class="st0" d="M98.5,39.3c0,5.1-1.4,9.8-4.3,14.1c-2.8,4.4-6.7,8.1-11.5,11.2c-4.8,3.1-8.2,6.3-10.1,9.4
		c-1.9,3.1-2.8,5.3-2.8,6.5v4.1H56.8v-5.9c0-3.5,1-6.9,3.2-10.3c2.2-3.3,5.9-6.9,11.1-10.9c3.8-2.8,6.5-5.6,7.9-8.5
		c1.4-2.9,2.2-5.8,2.2-8.5c0-5.1-1.4-8.9-4.3-11.5c-2.8-2.6-6.9-3.8-12.2-3.8c-5.3,0-9.7,1.7-13.3,5S46,38.9,46,46.3H29.5
		c0.5-11,4.1-19.2,10.8-24.5s14.9-8,24.5-8c10.5,0,18.8,2.4,24.9,7C95.5,25.9,98.5,31.9,98.5,39.3z M71.2,112.1H55.4V98h15.8
		C71.2,98,71.2,112.1,71.2,112.1z"/>
</g>
</svg>
