<?xml version="1.0" encoding="utf-8"?>
<!-- Generator: Adobe Illustrator 23.0.3, SVG Export Plug-In . SVG Version: 6.00 Build 0)  -->
<svg version="1.1" id="レイヤー_1" xmlns="http://www.w3.org/2000/svg" xmlns:xlink="http://www.w3.org/1999/xlink" x="0px"
	 y="0px" viewBox="0 0 128 128" style="enable-background:new 0 0 128 128;" xml:space="preserve">
<path d="M106.2,17.5L106.2,17.5c-5.1-5.2-11.7-8-18.8-8c-7.1,0-13.8,2.8-18.8,8L15.2,71.6c-1.6,1.6-1.6,4.2,0,5.8
	c1.6,1.6,4.2,1.6,5.8,0l53.2-54.1c3.4-3.5,8.1-5.5,12.9-5.5s9.5,1.9,12.9,5.5l0,0c7.2,7.3,7.2,19.1,0,26.4l-56,56.9
	c-2.4,2.4-5.5,3.8-8.8,3.8s-6.4-1.3-8.8-3.8l0,0c-4.9-4.9-4.9-13.1,0-18.1L72.2,42c1.3-1.3,2.9-1.9,4.7-1.9c1.7,0,3.4,0.8,4.7,1.9
	l0,0c2.7,2.7,2.7,7,0,9.7L38.8,95.4c-1.6,1.6-1.6,4.2,0,5.8c1.6,1.6,4.2,1.6,5.8,0l43.1-43.8c5.8-5.9,5.8-15.4,0-21.3l0,0
	c-2.8-2.9-6.6-4.4-10.5-4.4c-4,0-7.7,1.6-10.5,4.4L20.8,82.7c-3.9,4-6,9.2-6,14.8c0,5.6,2.1,10.9,6,14.8l0,0c4,4,9.1,6.1,14.7,6.1
	l0,0c5.6,0,10.7-2.1,14.7-6.1l56-56.9c5.1-5.1,7.7-11.8,7.7-19C113.9,29.3,111.2,22.6,106.2,17.5z"/>
</svg>
