<?xml version="1.0" encoding="utf-8"?>
<!-- Generator: Adobe Illustrator 23.0.3, SVG Export Plug-In . SVG Version: 6.00 Build 0)  -->
<svg version="1.1" id="レイヤー_1" xmlns="http://www.w3.org/2000/svg" xmlns:xlink="http://www.w3.org/1999/xlink" x="0px"
	 y="0px" viewBox="0 0 128 128" style="enable-background:new 0 0 128 128;" xml:space="preserve">
<path d="M99.9,14.3c-21.2,0-42.4,0-63.6,0c-7.2,0-11.8,4.6-11.8,11.7c0,27.2,0,54.5,0,81.7c0,4.4,1.6,6,6,6c19.4,0,38.8,0,58.3,0
	c3.5,0,3.8-0.3,3.8-3.9c0-26.4,0-52.8,0-79.1c0-3.4-0.4-3.8-3.7-3.8c-2.3,0-4.5,0-6.8,0v25.8l-13-6.7l-15.9,6.7V26.9
	c-5.2,0-10.5,0-15.7,0c-0.8,0-1.6,0.1-2.3-0.1c-1.9-0.3-2.8-1.4-2.9-3.3c0-2.4,1.5-3.6,4.6-3.6c19,0,37.9,0,56.9,0
	c3.2,0,3.2,0,3.2,3.2c0,26.1,0,52.1,0,78.2c0,3.5,0.4,4.1,3.2,4.1c2.9,0,3.3-0.5,3.3-4.2c0-13.8,0-27.5,0-41.3c0-14,0-28,0-42
	C103.5,14.8,103,14.3,99.9,14.3z"/>
</svg>
