<?xml version="1.0" encoding="utf-8"?>
<!-- Generator: Adobe Illustrator 23.0.3, SVG Export Plug-In . SVG Version: 6.00 Build 0)  -->
<svg version="1.1" id="レイヤー_1" xmlns="http://www.w3.org/2000/svg" xmlns:xlink="http://www.w3.org/1999/xlink" x="0px"
	 y="0px" viewBox="0 0 128 128" style="enable-background:new 0 0 128 128;" xml:space="preserve">
<path d="M104.2,85.4c-0.2-0.2-0.3-0.4-0.5-0.6c-1.5-2.9-3.2-5.6-5.2-8.1c-7.8-10.7-6.4-26-6.4-26.7c0-12.9-8.6-23.7-20.4-27.1
	c0.1-0.5,0.2-1,0.2-1.5c0-4.3-3.5-7.9-7.9-7.9c-4.3,0-7.9,3.5-7.9,7.9c0,0.5,0.1,1,0.2,1.5C44.5,26.3,35.8,37.1,35.8,50
	c0,0.7,1.4,16.2-6.6,27l0,0c-2,2.5-3.7,5.1-5.1,8c-0.1,0.2-0.3,0.3-0.4,0.5c-1.4,1.8-2.1,3.8-2.2,5.9c0,0.1,0,0.1,0,0.2
	c0,10.5,19,19,42.4,19s42.4-8.5,42.4-19c0,0,0,0,0,0C106.4,89.4,105.6,87.3,104.2,85.4z M64,104.3c-18.9,0-34.2-5.6-34.2-10.2
	c0-4,11.2-7.3,26.3-8.1c0.1,4.2,3.6,7.6,7.9,7.6c4.3,0,7.7-3.4,7.9-7.6c15.1,0.9,26.3,4.2,26.3,8.1C98.2,98.7,82.9,104.3,64,104.3z"
	/>
</svg>
