<?xml version="1.0" encoding="utf-8"?>
<!-- Generator: Adobe Illustrator 23.0.3, SVG Export Plug-In . SVG Version: 6.00 Build 0)  -->
<svg version="1.1" id="レイヤー_1" xmlns="http://www.w3.org/2000/svg" xmlns:xlink="http://www.w3.org/1999/xlink" x="0px"
	 y="0px" viewBox="0 0 128 128" style="enable-background:new 0 0 128 128;" xml:space="preserve">
<g>
	<path d="M99.3,42.4H28.7c-4.1,0-7.4-3.3-7.4-7.4s3.3-7.4,7.4-7.4h70.5c4.1,0,7.4,3.3,7.4,7.4S103.3,42.4,99.3,42.4z"/>
	<path d="M99.3,71.7H28.7c-4.1,0-7.4-3.3-7.4-7.4c0-4.1,3.3-7.4,7.4-7.4h70.5c4.1,0,7.4,3.3,7.4,7.4
		C106.6,68.4,103.3,71.7,99.3,71.7z"/>
	<path d="M99.3,100.3H28.7c-4.1,0-7.4-3.3-7.4-7.4s3.3-7.4,7.4-7.4h70.5c4.1,0,7.4,3.3,7.4,7.4S103.3,100.3,99.3,100.3z"/>
</g>
</svg>
