<?xml version="1.0" standalone="no"?> 
<!DOCTYPE svg PUBLIC "-//W3C//DTD SVG 1.1//EN" "http://www.w3.org/Graphics/SVG/1.1/DTD/svg11.dtd" >
<svg xmlns="http://www.w3.org/2000/svg">
<defs>
  <font id="icon" horiz-adv-x="128">
    <font-face font-family="icon"
      units-per-em="128" ascent="128"
      descent="0" />
    <missing-glyph horiz-adv-x="0" />
    <glyph glyph-name="twitter"
      unicode="&#xE801;"
      horiz-adv-x="128" d=" M40.391 36.406C27.578 36.857 19.568 46.05 17.45 53.52C21.014 52.841 24.526 52.977 28.018 53.837C28.109 53.857 28.199 53.92 28.372 53.998C21.434 55.613 16.074 59.327 12.358 65.31C9.89 69.29 8.709 73.644 8.745 78.427C12.21 76.573 15.831 75.539 19.718 75.438C14.499 79.196 11.001 84.109 9.57 90.392C8.15 96.666 9.069 102.628 12.215 108.253C25.567 92.529 42.465 83.908 63.071 82.488C62.927 83.463 62.773 84.324 62.675 85.186C61.987 90.986 63.145 96.401 66.28 101.308C70.199 107.462 75.803 111.283 83 112.454C91.291 113.816 98.531 111.451 104.586 105.582C104.994 105.191 105.329 105.061 105.899 105.191C110.965 106.291 115.746 108.116 120.24 110.706C120.346 110.766 120.457 110.827 120.566 110.875C120.589 110.891 120.628 110.887 120.731 110.887C118.781 105.15 115.225 100.734 110.172 97.47C114.946 97.991 119.506 99.262 123.904 101.164C123.939 101.123 123.97 101.085 124.003 101.053C123.06 99.817 122.147 98.557 121.169 97.358C118.554 94.13 115.548 91.295 112.205 88.839C111.923 88.629 111.789 88.427 111.799 88.064C111.933 84.407 111.791 80.75 111.337 77.114C110.389 69.452 108.253 62.143 104.983 55.16C101.604 47.958 97.201 41.439 91.655 35.724C82.263 26.015 70.945 19.749 57.772 16.842C53.251 15.85 48.665 15.339 44.036 15.207C29.818 14.791 16.676 18.327 4.579 25.798C4.425 25.887 4.272 25.999 3.999 26.174C12.606 25.247 20.789 26.35 28.665 29.574C32.848 31.286 36.722 33.532 40.391 36.406" />
    <glyph glyph-name="facebook"
      unicode="&#xE802;"
      horiz-adv-x="128" d=" M82.634 103.749C86.349 103.873 90.066 103.777 93.792 103.785H95.326V123.118C93.341 123.318 91.261 123.606 89.182 123.706C85.371 123.875 81.552 124.066 77.735 123.977C71.909 123.855 66.393 122.436 61.577 118.983C56.054 115.008 53.018 109.43 51.866 102.839C51.387 100.119 51.263 97.305 51.194 94.539C51.086 90.198 51.171 85.862 51.179 81.518V79.893H32.674V58.294H51.069V4H73.551V58.207H91.884C92.826 65.389 93.742 72.502 94.708 79.907C93.232 79.907 91.907 79.912 90.584 79.907C85.372 79.888 73.402 79.907 73.402 79.907S73.452 90.613 73.582 95.261C73.762 101.623 77.537 103.564 82.634 103.749" />
    <glyph glyph-name="instagram"
      unicode="&#xE803;"
      horiz-adv-x="128" d=" M64.01 94.757C47.017 94.767 33.235 80.998 33.225 64.006C33.216 47.015 46.981 33.231 63.975 33.223C80.97 33.211 94.75 46.98 94.761 63.974C94.771 80.965 81.003 94.749 64.01 94.757zM63.984 44.112C63.922 44.112 63.861 44.112 63.798 44.116C52.81 44.212 43.983 53.2 44.081 64.189C44.179 75.176 53.168 84.005 64.152 83.905C75.144 83.808 83.972 74.819 83.874 63.831C83.774 52.906 74.888 44.116 63.984 44.112z M122.198 29.358C124.941 39.836 123.983 84.426 123.023 93.88C122.217 101.775 119.191 108.762 113.321 114.359C107.148 120.252 99.597 122.853 91.319 123.295C84.504 123.666 73.162 123.972 61.931 123.972C49.923 123.972 38.046 123.621 31.968 122.631C18.536 120.443 9.725 112.6 6.009 99.33C4.597 94.28 4.019 80.222 4 66.08V64.596C4.019 50.634 4.571 36.899 5.386 31.97C7.661 18.171 15.818 9.321 29.493 5.8C34.206 4.582 48.108 4.047 62.168 4.029H63.794C77.424 4.048 90.877 4.544 95.915 5.361C109.726 7.594 118.609 15.704 122.198 29.358zM63.258 14.887C49.6 14.887 35.667 15.357 30.998 16.663C22.41 19.064 17.5 24.968 16.071 33.612C14.709 41.871 14.371 83.125 16.054 94.166C17.637 104.557 24.592 111.041 35.066 112.21C45.699 113.405 83.951 113.534 94.131 111.973C104.591 110.367 111.073 103.397 112.224 92.842C113.295 82.997 113.603 44.505 111.978 33.92C110.373 23.44 103.416 16.952 92.879 15.795C88.234 15.288 75.863 14.887 63.258 14.887z M95.995 103.144C95.989 103.144 95.983 103.144 95.978 103.144C92.006 103.144 88.784 99.93 88.773 95.956C88.765 91.977 91.98 88.744 95.959 88.736C99.939 88.725 103.172 91.943 103.182 95.92C103.192 99.9 99.974 103.132 95.995 103.144z" />
    <glyph glyph-name="arrow"
      unicode="&#xE804;"
      horiz-adv-x="128" d=" M119 50.9V28.8L64 77.1L9 28.9V50.9L64 99.1L119 50.9z" />
    <glyph glyph-name="menu"
      unicode="&#xE805;"
      horiz-adv-x="128" d=" M14.5 42.7H114.5V32.7H14.5V42.7z M14.5 69H114.5V59H14.5V69z M14.5 95.3H114.5V85.3H14.5V95.3z" />
    <glyph glyph-name="hatena"
      unicode="&#xE806;"
      horiz-adv-x="128" d=" M76.1 60.4C72.2 65 67 66.9 59.8 67.6C66.3 69.6 70.2 71.5 73.5 74.8C76.1 78.1 77.4 82.6 77.4 87.8C77.4 91.7 76.7 95.6 74.8 99.5C72.8 102.8 70.2 105.4 66.3 107.3C63 109.3 59.1 110.6 55.2 111.2C50.6 111.9 42.8 112.5 32.4 112.5H6V15.1H33C44.1 15.1 51.9 15.8 57.1 16.4S66.2 18.4 69.5 20.3C73.4 22.3 76.7 25.5 78.6 29.4S81.9 37.9 81.9 43.1C81.9 50.6 80 56.5 76.1 60.4zM30.1 90.7H36C42.5 90.7 47.1 90 49 88.7C51 87.4 52.3 84.8 52.3 80.9C52.3 77 51 75 48.4 73.7C45.8 72.4 41.2 71.7 34.7 71.7H29.5V90.7H30.1zM52.6 35.3C50 34 45.4 32.7 38.9 32.7H29.8V54.2H39.6C46.1 54.2 50.7 53.5 52.6 51.6C55.2 49.6 56.5 47 56.5 43.1C56.5 39.2 55.2 37.3 52.6 35.3L52.6 35.3z M109.6 40.2C103.1 40.2 97.2 34.3 97.2 27.8S103.1 15.4 109.6 15.4S122 21.3 122 27.8L122 27.8C122 34.7 116.8 40.2 109.6 40.2z M99.2 112.9H120.7V48.1H99.2V112.9z" />
    <glyph glyph-name="line"
      unicode="&#xE807;"
      horiz-adv-x="128" d=" M122 71.9C122 98.1 95.8 119.1 64 119.1S6 98.1 6 71.9C6 48.6 27 29.1 54.7 25.6C56.7 25 59.1 24.1 59.7 22.7C60.3 21.2 60.3 19.2 59.7 17.7C59.7 17.7 59.1 13.3 59.1 12.7C59.1 11.2 57.6 6.9 64.1 9.8C70.5 12.7 97.3 29.3 109.9 43.9L109.9 43.9C118.5 52.4 122 62 122 71.9zM41.6 56.7H29.9C28.4 56.7 27 58.2 27 59.6V83C26.4 84.5 27.6 85.9 29.9 85.9C31.4 85.9 32.8 84.4 32.8 83V62.6H41.5C43 62.6 44.4 61.1 44.4 59.7C44.5 58.2 43 56.7 41.6 56.7zM53.2 59.7C53.2 58.2 51.7 56.8 50.3 56.8S47.4 58.3 47.4 59.7V83C47.4 84.5 48.9 85.9 50.3 85.9S53.2 84.4 53.2 83V59.7zM81.5 59.7C81.5 58.2 80.9 57.7 79.5 56.8H78.9C78.3 56.8 76.9 57.4 76.9 58.3L64.7 74.3V59.7C64.7 58.2 63.2 56.8 61.8 56.8S58.9 58.3 58.9 59.7V83C58.3 84.5 58.9 85.9 60.4 85.9H61C62.5 85.9 63 85.9 63.9 85.3L75.6 69.3V83.9C75.6 85.4 77.1 86.8 78.5 86.8C80 86.8 81.4 85.3 81.4 83.9V60H81.7V59.7zM99.6 74.2C101.1 74.2 102.5 72.7 102.5 71.3S101 68.4 99.6 68.4H90.9V62.6H99.6C101.1 62.6 102.5 61.1 102.5 59.7C102.5 58.2 101 56.8 99.6 56.8H87.9C86.4 56.8 85 58.3 85 59.7V71.3L85 71.3L85 71.3V83L85 83C85 84.5 86.5 85.9 87.9 85.9H99.6C101.1 85.9 102.5 84.4 102.5 83S101 80.1 99.6 80.1H90.9V74.3H99.6z" />
    <glyph glyph-name="pocket"
      unicode="&#xE808;"
      horiz-adv-x="128" d=" M18.6 113.5C12.6 113.1 9 109.7 9 103.6V67.2C9 37.6 38.4 14.3 63.9 14.5C92.5 14.7 119 38.9 119 67.2V103.6C119 109.7 115.1 113.2 109.1 113.5L18.6 113.5L18.6 113.5zM41.8 83.9L63.9 62.9L86 83.9C95.9 88.1 100.2 76.8 96.2 73.5L67.4 45.9C66.5 45 61.4 45 60.5 45.9L31.7 73.4C27.8 77.1 32.8 88.5 41.8 83.9L41.8 83.9z" />
    <glyph glyph-name="rss"
      unicode="&#xE809;"
      horiz-adv-x="128" d=" M12.5 115.5C69.4 115.5 115.5 69.4 115.5 12.5H98.3C98.3 59.9 59.9 98.3 12.5 98.3V115.5zM12.5 75.4C47.3 75.4 75.4 47.2 75.4 12.5H58.3C58.3 37.8 37.8 58.3 12.5 58.3V75.4zM12.5 35.4C25.1 35.4 35.4 25.2 35.4 12.5H12.5V35.4z" />
    <glyph glyph-name="home"
      unicode="&#xE810;"
      horiz-adv-x="128" d=" M118.4 57.8L91.2 86.4L64 114.9L36.8 86.4L9.6 57.8L23.6 57.8L23.6 13.1L48.4 13.1L48.4 57.8L64 57.8L80.6 57.8L80.6 13.1L105.4 13.1L105.4 57.8z" />
    <glyph glyph-name="clip"
      unicode="&#xE811;"
      horiz-adv-x="128" d=" M106.2 110.5L106.2 110.5C101.1 115.7 94.5 118.5 87.4 118.5C80.3 118.5 73.6 115.7 68.6 110.5L15.2 56.4C13.6 54.8 13.6 52.2 15.2 50.6C16.8 49 19.4 49 21 50.6L74.2 104.7C77.6 108.2 82.3 110.2 87.1 110.2S96.6 108.3 100 104.7L100 104.7C107.2 97.4 107.2 85.6 100 78.3L44 21.4C41.6 19 38.5 17.6 35.2 17.6S28.8 18.9 26.4 21.4L26.4 21.4C21.5 26.3 21.5 34.5 26.4 39.5L72.2 86C73.5 87.3 75.1 87.9 76.9 87.9C78.6 87.9 80.3 87.1 81.6 86L81.6 86C84.3 83.3 84.3 79 81.6 76.3L38.8 32.6C37.2 31 37.2 28.4 38.8 26.8C40.4 25.2 43 25.2 44.6 26.8L87.7 70.6C93.5 76.5 93.5 86 87.7 91.9L87.7 91.9C84.9 94.8 81.1 96.3 77.2 96.3C73.2 96.3 69.5 94.7 66.7 91.9L20.8 45.3C16.9 41.3 14.8 36.1 14.8 30.5C14.8 24.9 16.9 19.6 20.8 15.7L20.8 15.7C24.8 11.7 29.9 9.6 35.5 9.6L35.5 9.6C41.1 9.6 46.2 11.7 50.2 15.7L106.2 72.6C111.3 77.7 113.9 84.4 113.9 91.6C113.9 98.7 111.2 105.4 106.2 110.5z" />
    <glyph glyph-name="clipranking"
      unicode="&#xE812;"
      horiz-adv-x="128" d=" M106.3 108.5L106.3 108.5C101.4 113.6 94.8 116.3 87.9 116.3S74.4 113.6 69.5 108.5L17.4 55.6C15.8 54 15.8 51.5 17.4 49.9C19 48.3 21.5 48.3 23.1 49.9L75.2 102.7C78.6 106.2 83.1 108.1 87.8 108.1C92.5 108.1 97.1 106.2 100.4 102.7L100.4 102.7C107.5 95.5 107.5 84 100.4 76.8L45.7 21.2C43.4 18.9 40.3 17.6 37.1 17.6C33.8 17.6 30.8 18.9 28.5 21.3L28.5 21.3C23.7 26.1 23.7 34.1 28.5 39L73.2 84.5C74.5 85.8 76 86.4 77.8 86.4C79.6 86.4 81.2 85.7 82.4 84.5L82.4 84.5C84.9 81.9 84.9 77.7 82.4 75L40.3 32.3C38.7 30.7 38.7 28.2 40.3 26.6C41.9 25 44.4 25 46 26.6L88.1 69.4C93.8 75.2 93.8 84.5 88.1 90.2L88.1 90.2C85.6 92.9 81.9 94.5 78 94.5C74.1 94.5 70.4 92.9 67.7 90.2L22.8 44.7C19 40.8 16.9 35.6 16.9 30.2C16.9 24.7 19 19.6 22.8 15.7L22.8 15.7C26.6 11.8 31.7 9.7 37.2 9.7L37.2 9.7C42.7 9.7 47.7 11.8 51.6 15.7L106.3 71.3C111.2 76.2 113.9 82.9 113.9 89.9C113.9 96.9 111.3 103.5 106.3 108.5z M46.9 80.2L34.4 86.6L22 79.8L24.2 93.7L14 103.4L27.9 105.6L34 118.4L40.3 105.9L54.3 104L44.3 94.1L46.9 80.2z" />
    <glyph glyph-name="question"
      unicode="&#xE813;"
      horiz-adv-x="128" d=" M98.5 88.7C98.5 83.6 97.1 78.9 94.2 74.6C91.4 70.2 87.5 66.5 82.7 63.4C77.9 60.3 74.5 57.1 72.6 54C70.7 50.9 69.8 48.7 69.8 47.5V43.4H56.8V49.3C56.8 52.8 57.8 56.2 60 59.6C62.2 62.9 65.9 66.5 71.1 70.5C74.9 73.3 77.6 76.1 79 79C80.4 81.9 81.2 84.8 81.2 87.5C81.2 92.6 79.8 96.4 76.9 99C74.1 101.6 70 102.8 64.7 102.8C59.4 102.8 55 101.1 51.4 97.8S46 89.1 46 81.7H29.5C30 92.7 33.6 100.9 40.3 106.2S55.2 114.2 64.8 114.2C75.3 114.2 83.6 111.8 89.7 107.2C95.5 102.1 98.5 96.1 98.5 88.7zM71.2 15.9H55.4V30H71.2C71.2 30 71.2 15.9 71.2 15.9z" />
    <glyph glyph-name="search"
      unicode="&#xE814;"
      horiz-adv-x="128" d=" M102.7 49C117.5 63.8 117.5 87.9 102.7 102.8C95.6 109.9 85.9 113.9 75.8 113.9C65.7 113.9 56.1 109.9 48.9 102.8C36.5 90.4 34.2 71.2 43.3 56.2L16.8 29.6C13.3 26.1 13.2 20.4 16.8 16.8C20.3 13.3 26 13.3 29.6 16.8L56.2 43.4C71.1 34.3 90.3 36.6 102.7 49L102.7 49zM92.5 59.2C88.1 54.8 82.1 52.3 75.9 52.3C69.7 52.3 63.7 54.8 59.3 59.2C54.9 63.6 52.4 69.6 52.4 75.8C52.4 82 54.9 88 59.3 92.4C63.7 96.8 69.7 99.3 75.9 99.3C82.1 99.3 88.1 96.8 92.5 92.4C96.9 88 99.4 82 99.4 75.8C99.4 69.6 96.9 63.6 92.5 59.2L92.5 59.2zM92.5 59.2" />
    <glyph glyph-name="star"
      unicode="&#xE815;"
      horiz-adv-x="128" d=" M97.7 15.7L64.5 32.7L31.6 15L37.5 51.8L10.5 77.6L47.4 83.3L63.6 117L80.5 83.7L117.5 78.7L91 52.4L97.7 15.7zM97.7 15.7" />
    <glyph glyph-name="folder"
      unicode="&#xE816;"
      horiz-adv-x="128" d=" M108.3 96.8H59.9L59 99.8C58.2 102.4 55.3 104.5 52.6 104.5H18.2C15.5 104.5 13.3 102.3 13.3 99.6V29.3C13.3 26.6 15.5 24.4 18.2 24.4H108.3C111 24.4 113.2 26.6 113.2 29.3V91.9C113.3 94.6 111.1 96.8 108.3 96.8z" />
    <glyph glyph-name="mail"
      unicode="&#xE817;"
      horiz-adv-x="128" d=" M12 25.6V102.4H116V25.6H12zM17 34L46.9 64L17 94V34zM20.4 97.3L58.3 59.3C62.5 55.1 65.5 55.1 69.7 59.3L107.6 97.3H20.4zM107.6 30.7L77.7 60.7C71.8 54.8 68 50.8 63.9 50.8C59.9 50.8 56 54.8 50.1 60.7L20.2 30.7H107.6zM81.1 64L111 34V94L81.1 64z" />
    <glyph glyph-name="comment"
      unicode="&#xE818;"
      horiz-adv-x="128" d=" M64 108.1C35.9 108.1 13.2 89.6 13.2 66.8C13.2 55.5 18.8 45.3 27.8 37.8L20.1 23.6C18.4 20.5 19.7 19 23 20.4L43.5 29C49.8 26.7 56.7 25.5 64 25.5C92.1 25.5 114.8 44 114.8 66.8C114.8 89.6 92.1 108.1 64 108.1zM41.9 61.4C38.9 61.4 36.5 63.8 36.5 66.8C36.5 69.8 38.9 72.2 41.9 72.2C44.9 72.2 47.3 69.8 47.3 66.8C47.2 63.8 44.8 61.4 41.9 61.4zM64 61.4C61 61.4 58.6 63.8 58.6 66.8C58.6 69.8 61 72.2 64 72.2C67 72.2 69.4 69.8 69.4 66.8C69.4 63.8 67 61.4 64 61.4zM86.1 61.4C83.1 61.4 80.7 63.8 80.7 66.8C80.7 69.8 83.1 72.2 86.1 72.2C89.1 72.2 91.5 69.8 91.5 66.8C91.5 63.8 89.1 61.4 86.1 61.4z" />
    <glyph glyph-name="bright"
      unicode="&#xE819;"
      horiz-adv-x="128" d=" M110.4 61.6C110.4 60.7 109.7 59.9 108.8 59.8C73.5 54.5 69.7 50.8 64.5 15.5C64.4 14.6 63.6 13.9 62.7 13.9C61.8 13.9 61 14.6 60.9 15.5C55.6 50.8 51.9 54.6 16.6 59.8C15.7 59.9 15 60.7 15 61.6C15 62.5 15.7 63.3 16.6 63.4C51.9 68.7 55.7 72.4 60.9 107.7C61 108.6 61.8 109.3 62.7 109.3C63.6 109.3 64.4 108.6 64.5 107.7C69.8 72.4 73.5 68.6 108.8 63.4C109.7 63.3 110.4 62.5 110.4 61.6zM116.4 99.7C103.8 101.6 102.4 102.9 100.6 115.5C100.6 115.8 100.3 116.1 100 116.1C99.7 116.1 99.4 115.9 99.4 115.5C97.5 102.9 96.2 101.5 83.6 99.7C83.3 99.7 83 99.4 83 99.1C83 98.8 83.2 98.5 83.6 98.5C96.2 96.6 97.6 95.3 99.4 82.7C99.4 82.4 99.7 82.1 100 82.1C100.3 82.1 100.6 82.3 100.6 82.7C102.5 95.3 103.8 96.7 116.4 98.5C116.7 98.5 117 98.8 117 99.1C117 99.4 116.8 99.7 116.4 99.7z" />
    <glyph glyph-name="bell"
      unicode="&#xE820;"
      horiz-adv-x="128" d=" M104.2 42.6C104 42.8 103.9 43 103.7 43.2C102.2 46.1 100.5 48.8 98.5 51.3C90.7 62 92.1 77.3 92.1 78C92.1 90.9 83.5 101.7 71.7 105.1C71.8 105.6 71.9 106.1 71.9 106.6C71.9 110.9 68.4 114.5 64 114.5C59.7 114.5 56.1 111 56.1 106.6C56.1 106.1 56.2 105.6 56.3 105.1C44.5 101.7 35.8 90.9 35.8 78C35.8 77.3 37.2 61.8 29.2 51L29.2 51C27.2 48.5 25.5 45.9 24.1 43C24 42.8 23.8 42.7 23.7 42.5C22.3 40.7 21.6 38.7 21.5 36.6C21.5 36.5 21.5 36.5 21.5 36.4C21.5 25.9 40.5 17.4 63.9 17.4S106.3 25.9 106.3 36.4C106.3 36.4 106.3 36.4 106.3 36.4C106.4 38.6 105.6 40.7 104.2 42.6zM64 23.7C45.1 23.7 29.8 29.3 29.8 33.9C29.8 37.9 41 41.2 56.1 42C56.2 37.8 59.7 34.4 64 34.4C68.3 34.4 71.7 37.8 71.9 42C87 41.1 98.2 37.8 98.2 33.9C98.2 29.3 82.9 23.7 64 23.7z" />
    <glyph glyph-name="list"
      unicode="&#xE821;"
      horiz-adv-x="128" d=" M99.3 85.6H28.7C24.6 85.6 21.3 88.9 21.3 93S24.6 100.4 28.7 100.4H99.2C103.3 100.4 106.6 97.1 106.6 93S103.3 85.6 99.3 85.6z M99.3 56.3H28.7C24.6 56.3 21.3 59.6 21.3 63.7C21.3 67.8 24.6 71.1 28.7 71.1H99.2C103.3 71.1 106.6 67.8 106.6 63.7C106.6 59.6 103.3 56.3 99.3 56.3z M99.3 27.7H28.7C24.6 27.7 21.3 31 21.3 35.1S24.6 42.5 28.7 42.5H99.2C103.3 42.5 106.6 39.2 106.6 35.1S103.3 27.7 99.3 27.7z" />
    <glyph glyph-name="bookmark"
      unicode="&#xE822;"
      horiz-adv-x="128" d=" M99.9 113.7C78.7 113.7 57.5 113.7 36.3 113.7C29.1 113.7 24.5 109.1 24.5 102C24.5 74.8 24.5 47.5 24.5 20.3C24.5 15.9 26.1 14.3 30.5 14.3C49.9 14.3 69.3 14.3 88.8 14.3C92.3 14.3 92.6 14.6 92.6 18.2C92.6 44.6 92.6 71 92.6 97.3C92.6 100.7 92.2 101.1 88.9 101.1C86.6 101.1 84.4 101.1 82.1 101.1V75.3L69.1 82L53.2 75.3V101.1C48 101.1 42.7 101.1 37.5 101.1C36.7 101.1 35.9 101 35.2 101.2C33.3 101.5 32.4 102.6 32.3 104.5C32.3 106.9 33.8 108.1 36.9 108.1C55.9 108.1 74.8 108.1 93.8 108.1C97 108.1 97 108.1 97 104.9C97 78.8 97 52.8 97 26.7C97 23.2 97.4 22.6 100.2 22.6C103.1 22.6 103.5 23.1 103.5 26.8C103.5 40.6 103.5 54.3 103.5 68.1C103.5 82.1 103.5 96.1 103.5 110.1C103.5 113.2 103 113.7 99.9 113.7z" />
  </font>
</defs>
</svg>
